<?xml version="1.0" standalone="no"?>
<!DOCTYPE svg PUBLIC "-//W3C//DTD SVG 20010904//EN"
 "http://www.w3.org/TR/2001/REC-SVG-20010904/DTD/svg10.dtd">
<svg version="1.0" xmlns="http://www.w3.org/2000/svg"
 width="700.000000pt" height="700.000000pt" viewBox="0 0 700.000000 700.000000"
 preserveAspectRatio="xMidYMid meet">
<metadata>
Created by potrace 1.11, written by Peter Selinger 2001-2013
</metadata>
<g transform="translate(0.000000,700.000000) scale(0.100000,-0.100000)"
fill="#000000" stroke="none">
<path d="M3367 6754 c-1 -1 -51 -4 -110 -8 -60 -3 -118 -8 -130 -11 -12 -2
-44 -6 -72 -9 -27 -3 -61 -8 -75 -11 -14 -3 -43 -8 -65 -11 -76 -10 -320 -73
-440 -113 -1100 -365 -1933 -1301 -2164 -2431 -11 -52 -22 -113 -25 -135 -22
-153 -27 -200 -33 -280 -16 -225 2 -675 31 -755 3 -8 8 -33 10 -55 7 -61 22
-129 55 -255 118 -455 327 -867 630 -1240 77 -96 313 -340 386 -400 244 -203
439 -332 684 -454 289 -145 591 -243 922 -300 15 -2 53 -8 85 -11 33 -4 68 -9
79 -11 50 -9 204 -17 350 -18 144 0 371 11 385 19 3 1 33 6 68 9 34 4 86 11
115 17 29 5 67 12 85 15 76 12 275 66 392 105 484 162 905 423 1271 788 182
183 307 339 466 581 53 81 186 340 236 461 68 162 149 413 173 534 2 11 9 45
15 75 6 30 15 75 20 100 5 25 11 72 15 105 3 33 8 69 10 80 23 117 22 598 0
735 -3 14 -7 52 -11 85 -4 32 -8 62 -10 65 -2 3 -6 24 -9 46 -17 135 -93 414
-164 599 -116 303 -293 611 -496 865 -189 234 -436 467 -677 637 -361 254
-827 453 -1239 528 -251 45 -364 56 -603 60 -86 1 -158 1 -160 -1z m354 -298
c53 -4 105 -8 115 -10 11 -2 47 -7 79 -11 60 -8 79 -10 125 -20 14 -2 39 -7
55 -10 17 -3 90 -20 163 -40 637 -166 1205 -548 1608 -1080 144 -190 255 -380
352 -600 38 -87 127 -333 136 -378 3 -12 14 -60 26 -107 23 -93 47 -212 54
-275 3 -22 7 -57 10 -77 24 -187 25 -508 1 -688 -1 -14 -6 -50 -10 -80 -11
-88 -54 -286 -87 -400 -202 -703 -651 -1298 -1276 -1693 -95 -60 -410 -224
-444 -231 -7 -2 -26 -9 -43 -16 -110 -46 -410 -133 -535 -154 -19 -3 -46 -8
-59 -11 -198 -38 -624 -49 -821 -21 -14 2 -52 7 -85 11 -33 4 -69 9 -80 11
-11 3 -36 7 -55 10 -81 12 -294 70 -415 112 -624 216 -1143 619 -1512 1175
-148 223 -299 550 -372 802 -30 106 -76 322 -86 405 -3 25 -8 56 -10 70 -23
145 -23 503 0 690 3 19 7 58 11 85 19 161 90 433 166 635 77 206 232 497 351
658 168 227 420 493 562 594 5 4 26 20 45 36 105 86 329 226 476 300 86 42
147 69 289 127 29 12 160 56 180 61 6 2 51 14 100 28 111 31 270 63 350 71 33
3 67 8 75 10 8 2 60 7 115 10 55 4 101 7 102 8 4 4 255 -1 344 -7z"/>
<path d="M3904 4702 c-31 -64 -90 -184 -129 -267 -99 -205 -210 -435 -317
-655 -97 -199 -217 -445 -333 -685 -40 -82 -120 -248 -178 -367 l-106 -218
-33 21 c-18 11 -74 46 -125 77 -50 31 -292 181 -537 332 -245 151 -444 278
-443 282 1 4 58 50 127 103 69 53 152 117 185 142 33 26 175 134 315 242 140
108 260 199 265 203 6 5 42 33 82 64 l72 56 -60 92 c-33 50 -63 97 -68 105 -8
13 -12 13 -29 0 -22 -15 -326 -245 -352 -266 -8 -7 -96 -74 -195 -149 -99 -75
-252 -192 -340 -259 -88 -67 -185 -140 -215 -163 l-55 -42 -1 -131 0 -130 759
-456 c417 -250 760 -453 762 -451 7 8 58 111 325 663 43 88 117 241 165 340
84 172 152 314 318 655 171 355 309 635 312 638 2 3 108 -60 236 -139 128 -79
247 -153 265 -164 18 -11 146 -90 284 -175 137 -85 258 -159 268 -165 48 -27
172 -108 170 -110 -2 -1 -199 -123 -438 -270 -239 -147 -449 -277 -466 -289
l-32 -21 75 -103 c72 -98 76 -102 97 -89 11 8 248 156 526 330 l506 316 0 129
0 129 -220 133 c-122 73 -358 216 -525 317 -167 101 -307 183 -311 183 -5 0
-10 4 -12 8 -1 4 -55 38 -118 76 -63 37 -176 104 -251 150 -74 45 -142 85
-151 89 -13 4 -29 -20 -74 -111z"/>
</g>
</svg>
